<svg fill="#ebebeb" xmlns="http://www.w3.org/2000/svg" viewBox="0 0 512 512"><path d="M111.136 231.238C49.856 231.238 0 281.094 0 342.374 0 403.659 49.856 453.51 111.136 453.51s111.136-49.851 111.136-111.136c0-61.28-49.856-111.136-111.136-111.136zm0 189.103c-42.989 0-77.961-34.977-77.961-77.967s34.972-77.961 77.961-77.961 77.961 34.972 77.961 77.961c0 42.995-34.972 77.967-77.961 77.967z"/><path d="M167.594 59.525c-18.263-3.163-36.719.979-51.958 11.683-15.106 10.599-25.202 26.335-28.481 44.36L5.723 308.84c-3.555 8.449.404 18.169 8.847 21.73 8.449 3.561 18.174-.409 21.73-8.847l82.937-196.838a16.599 16.599 0 0 0 1.299-6.602c4.938-17.782 22.78-29.293 41.402-26.07 9.521 1.648 17.854 6.956 23.466 14.956 5.618 8.006 7.802 17.682 6.148 27.242a16.743 16.743 0 0 0-.238 2.577l-3.318 218.402c-.138 9.162 7.171 16.704 16.333 16.842h.254c9.04 0 16.444-7.26 16.582-16.333l3.295-217.191c5.719-37.372-19.533-72.725-56.866-79.183z"/><path d="M207.343 222.386h96.76v33.175h-96.76zM207.343 279.895h96.76v33.175h-96.76z"/><path d="M400.864 231.233c-61.28 0-111.136 49.856-111.136 111.136 0 61.285 49.856 111.142 111.136 111.142S512 403.659 512 342.369c0-61.28-49.856-111.136-111.136-111.136zm0 189.108c-42.989 0-77.961-34.977-77.961-77.967s34.977-77.961 77.961-77.961 77.961 34.972 77.961 77.961c0 42.995-34.972 77.967-77.961 77.967z"/><path d="M506.277 308.84l-81.428-193.244c-6.812-37.477-42.796-62.585-80.449-56.071-18.274 3.163-34.248 13.314-44.963 28.586-10.422 14.862-14.63 32.777-11.899 50.597l3.295 217.191c.138 9.073 7.536 16.333 16.582 16.333.083 0 .171 0 .265.006 9.156-.138 16.466-7.68 16.333-16.842l-3.318-218.402c-.017-.863-.1-1.725-.243-2.577-1.659-9.565.525-19.241 6.143-27.248 5.612-8.001 13.945-13.309 23.466-14.956 18.583-3.212 36.454 8.283 41.402 26.053a16.485 16.485 0 0 0 1.299 6.618l82.937 196.838c3.561 8.449 13.287 12.396 21.73 8.847 8.445-3.56 12.409-13.286 8.848-21.729z"/><path d="M207.343 120.655h97.313v33.175h-97.313z"/></svg>