<svg height="512pt" viewBox="0 0 511 512" width="512pt" xmlns="http://www.w3.org/2000/svg"><path d="M33.504 512a19.996 19.996 0 0 1-14.164-5.875l-13-13.031a20.003 20.003 0 0 1-4.219-22.012l172-400.969a19.99 19.99 0 0 1 14.613-11.754 19.992 19.992 0 0 1 17.926 5.516l241.996 242.586a20.003 20.003 0 0 1-6.297 32.516L298.363 400.53c-10.16 4.344-21.91-.37-26.254-10.527-4.34-10.156.375-21.91 10.528-26.254l116.847-49.945-200.261-200.746L48.809 463.703l141.828-60.625c10.16-4.344 21.91.375 26.254 10.527 4.34 10.157-.375 21.91-10.532 26.25l-165 70.536A19.996 19.996 0 0 1 33.504 512zm168.613-211.117l30.028-70c4.351-10.149-.348-21.91-10.497-26.262-10.152-4.36-21.91.344-26.265 10.492l-30.028 70c-4.351 10.153.348 21.91 10.497 26.266a19.878 19.878 0 0 0 7.875 1.625c7.757 0 15.14-4.54 18.39-12.121zM154.5 337c-11.047 0-20 8.953-20 20s8.953 20 20 20 20-8.953 20-20-8.957-20-20-20zm318-254c-11.047 0-20 8.953-20 20s8.953 20 20 20 20-8.953 20-20-8.957-20-20-20zm20-83c-11.047 0-20 8.953-20 20s8.953 20 20 20 20-8.953 20-20-8.957-20-20-20zm-246 0c-11.047 0-20 8.953-20 20s8.953 20 20 20 20-8.953 20-20-8.957-20-20-20zm135 147c-11.047 0-20 8.953-20 20s8.953 20 20 20 20-8.953 20-20-8.957-20-20-20zm32.055-107h-28.368c-4.285 0-8.085-1.672-9.41-5.734l-8.902-27.457C365.395 2.269 361.43 0 357.465 0s-7.93 2.27-9.414 6.809l-8.903 27.46c-1.324 4.06-5.125 5.731-9.41 5.731h-28.324c-9.586 0-13.57 13.29-5.816 18.898l22.82 16.864a9.83 9.83 0 0 1 3.598 11.015l-8.907 27.282c-2.96 9.078 7.473 16.625 15.23 11.015l23.31-16.867a9.922 9.922 0 0 1 11.633 0l23.308 16.867c7.754 5.61 18.191-1.937 15.226-11.015l-8.902-27.282a9.834 9.834 0 0 1 3.594-11.015l22.863-16.864C427.125 53.29 423.141 40 413.555 40zm92.183 151h-19.343c-2.926 0-5.516-1.445-6.418-4.258l-6.075-19.027c-1.007-3.145-3.714-4.715-6.418-4.715s-5.406 1.57-6.418 4.715l-6.07 19.027c-.902 2.813-3.496 4.258-6.418 4.258h-19.316c-6.54 0-9.258 8.922-3.969 12.813l15.562 11.683c2.368 1.738 3.356 4.82 2.454 7.633l-6.07 18.902c-2.02 6.293 5.093 11.52 10.382 7.633l15.899-11.684a6.678 6.678 0 0 1 7.934 0l15.898 11.684c5.289 3.887 12.402-1.34 10.382-7.633l-6.07-18.902c-.902-2.813.086-5.895 2.45-7.633l15.593-11.684c5.285-3.89 2.566-12.812-3.969-12.812zm0 0"/></svg>