<svg xmlns="http://www.w3.org/2000/svg" viewBox="0 0 512 512"><path d="M510.702 438.722c-2.251-10.813-12.844-17.753-23.656-15.503-10.815 2.252-17.756 12.843-15.504 23.657 1.297 6.228-.247 12.613-4.236 17.518-2.311 2.84-7.461 7.606-15.999 7.606H361c-11.046 0-20 8.954-20 20s8.954 20 20 20h90.307c18.329 0 35.471-8.153 47.032-22.369 11.618-14.287 16.125-32.842 12.363-50.909zM276.306 272.769c65.707 6.052 125.477 41.269 162.703 96.788 6.15 9.174 18.576 11.626 27.749 5.474 9.175-6.152 11.625-18.576 5.474-27.75-32.818-48.946-80.475-84.53-134.812-102.412C370.535 220.04 392 180.48 392 136 392 61.009 330.99 0 256 0S120 61.009 120 136c0 44.509 21.492 84.092 54.643 108.917-30.371 9.998-58.871 25.547-83.813 46.062-45.732 37.617-77.529 90.087-89.532 147.743-3.762 18.067.745 36.622 12.363 50.909C25.221 503.847 42.364 512 60.693 512H148c11.046 0 20-8.954 20-20s-8.954-20-20-20H60.691c-8.538 0-13.688-4.765-15.999-7.606-3.989-4.906-5.533-11.29-4.236-17.519 19.584-94.068 98.98-164.202 193.187-173.885l-38.181 173.709a20.003 20.003 0 0 0 5.392 18.435l40.002 40.007a20.001 20.001 0 0 0 28.287 0l39.998-40.007a20 20 0 0 0 5.391-18.434l-38.226-173.931zM160 136c0-52.935 43.065-96 96-96s96 43.065 96 96c0 51.337-40.505 93.389-91.235 95.882a260.572 260.572 0 0 0-4.765-.048c-1.561 0-3.12.023-4.679.051C200.551 229.436 160 187.366 160 136zm94.999 326.713l-18.117-18.12 18.117-82.425 18.115 82.426-18.115 18.119z"/></svg>